<?xml version="1.0" encoding="utf-8"?>
<!-- Generator: Adobe Illustrator 25.4.1, SVG Export Plug-In . SVG Version: 6.00 Build 0)  -->
<svg version="1.1" id="Capa_1" xmlns="http://www.w3.org/2000/svg" xmlns:xlink="http://www.w3.org/1999/xlink" x="0px" y="0px"
	 viewBox="0 0 1024 432" style="enable-background:new 0 0 1024 432;" xml:space="preserve">
<style type="text/css">
	.st0{fill:url(#SVGID_1_);}
	.st1{fill:url(#SVGID_00000065057529824251282150000003178125200764661693_);}
	.st2{fill:url(#SVGID_00000049190380118226523260000003892684994667039409_);}
	.st3{fill:url(#SVGID_00000096748184658421370310000006779673884292541341_);}
	.st4{fill:url(#SVGID_00000098904109172124367530000013371712451284974732_);}
	.st5{fill:url(#SVGID_00000124847022104042838350000015395867800540558212_);}
	.st6{fill:url(#SVGID_00000183234288679076903000000003113576429648273340_);}
	.st7{fill:url(#SVGID_00000010309169695410818930000005259913837537723274_);}
	.st8{fill:url(#SVGID_00000071525393957899937290000012140430570412745661_);}
	.st9{fill:url(#SVGID_00000053538798891345195600000013202400268592186014_);}
	.st10{fill:#003EA6;}
</style>
<linearGradient id="SVGID_1_" gradientUnits="userSpaceOnUse" x1="166.0775" y1="325.9996" x2="193.3575" y2="164.7796" gradientTransform="matrix(1 0 0 -1 0 480.7244)">
	<stop  offset="0" style="stop-color:#A2EEFF"/>
	<stop  offset="1" style="stop-color:#1B4DD7"/>
</linearGradient>
<path class="st0" d="M154.7,159.8l25.9-4.7l0.6,128.7l42.2-7.7l-1.8,21.1l-66.1,12L154.7,159.8z"/>
<linearGradient id="SVGID_00000172438183416187447950000006015750363181221256_" gradientUnits="userSpaceOnUse" x1="254.2566" y1="340.9194" x2="281.5366" y2="179.7094" gradientTransform="matrix(1 0 0 -1 0 480.7244)">
	<stop  offset="0" style="stop-color:#A2EEFF"/>
	<stop  offset="1" style="stop-color:#1B4DD7"/>
</linearGradient>
<path style="fill:url(#SVGID_00000172438183416187447950000006015750363181221256_);" d="M296.9,214.5l-36.5,6.6l0.6,48.2l44.1-8
	l-3.3,21.4l-66.7,12.1l-0.8-149.4l64.4-11.7v20.8l-38.5,7l0.3,38.9l36.5-6.6L296.9,214.5z"/>
<linearGradient id="SVGID_00000146459778288558242740000004822705596927088808_" gradientUnits="userSpaceOnUse" x1="341.6438" y1="355.709" x2="368.9338" y2="194.4989" gradientTransform="matrix(1 0 0 -1 0 480.7244)">
	<stop  offset="0" style="stop-color:#A2EEFF"/>
	<stop  offset="1" style="stop-color:#1B4DD7"/>
</linearGradient>
<path style="fill:url(#SVGID_00000146459778288558242740000004822705596927088808_);" d="M317.4,130.3l30.8-5.6
	c38-6.9,48.7,11.2,48.8,42.3l0.2,56.1c0,26.6-4.4,43.1-40.1,49.5l-38.9,7.1L317.4,130.3z M343.7,256.3l8.3-1.6
	c15.4-2.8,19.2-10.7,19.1-27.1l-0.4-63.5c0-15.6-3.3-24-19.5-21l-8,1.5L343.7,256.3z"/>
<linearGradient id="SVGID_00000170999021687956527130000018040373330062388897_" gradientUnits="userSpaceOnUse" x1="477.7468" y1="378.7445" x2="505.0268" y2="217.5245" gradientTransform="matrix(1 0 0 -1 0 480.7244)">
	<stop  offset="0" style="stop-color:#A2EEFF"/>
	<stop  offset="1" style="stop-color:#1B4DD7"/>
</linearGradient>
<path style="fill:url(#SVGID_00000170999021687956527130000018040373330062388897_);" d="M449.9,106.2l25.9-4.7l0.3,59.6l27.1-4.9
	l-0.3-59.6l26.1-4.7l0.8,149.4l-26.1,4.7l-0.5-69l-27.1,4.9l0.5,69l-25.8,4.7L449.9,106.2z"/>
<linearGradient id="SVGID_00000132809514349005393370000010341925761974215343_" gradientUnits="userSpaceOnUse" x1="578.5422" y1="395.8004" x2="605.8322" y2="234.5904" gradientTransform="matrix(1 0 0 -1 0 480.7244)">
	<stop  offset="0" style="stop-color:#A2EEFF"/>
	<stop  offset="1" style="stop-color:#1B4DD7"/>
</linearGradient>
<path style="fill:url(#SVGID_00000132809514349005393370000010341925761974215343_);" d="M630.5,114.3l0.5,70
	c0.2,25.4-5.1,41.7-36.6,47.4c-30.5,5.5-43.4-9.4-43.8-35.1l-0.9-73.4c-0.3-25.5,12-39.4,36-43.8C613.2,74.4,630.4,87.1,630.5,114.3
	z M576.2,118.5l0.7,77.2c0,10.7,3.3,19.2,15.4,17c10-1.8,12.5-9.6,12.5-21.2l-0.6-77.1c-0.1-11-4.4-18-15.9-15.9
	C579.7,100.1,576,106.6,576.2,118.5L576.2,118.5z"/>
<linearGradient id="SVGID_00000031191119309084363710000007182939051429257123_" gradientUnits="userSpaceOnUse" x1="676.179" y1="412.3264" x2="703.4589" y2="251.1064" gradientTransform="matrix(1 0 0 -1 0 480.7244)">
	<stop  offset="0" style="stop-color:#A2EEFF"/>
	<stop  offset="1" style="stop-color:#1B4DD7"/>
</linearGradient>
<path style="fill:url(#SVGID_00000031191119309084363710000007182939051429257123_);" d="M651.3,69.7l30.7-5.6
	c38-6.9,48.7,11.2,48.8,42.3l0.2,56.1c0.1,26.5-4.4,43-40.1,49.5l-38.9,7.1L651.3,69.7z M677.5,195.7l8.4-1.5
	c15.4-2.8,19.2-10.7,19.1-27.1l-0.3-63.5c0-15.6-3.3-24-19.5-21l-8,1.5L677.5,195.7z"/>
<linearGradient id="SVGID_00000009553083213333925850000012354513413455109286_" gradientUnits="userSpaceOnUse" x1="753.0518" y1="425.3303" x2="780.3318" y2="264.1203" gradientTransform="matrix(1 0 0 -1 0 480.7244)">
	<stop  offset="0" style="stop-color:#A2EEFF"/>
	<stop  offset="1" style="stop-color:#1B4DD7"/>
</linearGradient>
<path style="fill:url(#SVGID_00000009553083213333925850000012354513413455109286_);" d="M777.2,46.8l0.8,149.4l-25.8,4.7
	l-0.8-149.4L777.2,46.8z"/>
<linearGradient id="SVGID_00000171700637482897426470000000334152917123844511_" gradientUnits="userSpaceOnUse" x1="821.3351" y1="436.8925" x2="848.6151" y2="275.6725" gradientTransform="matrix(1 0 0 -1 0 480.7244)">
	<stop  offset="0" style="stop-color:#A2EEFF"/>
	<stop  offset="1" style="stop-color:#1B4DD7"/>
</linearGradient>
<path style="fill:url(#SVGID_00000171700637482897426470000000334152917123844511_);" d="M862.8,111.7l-36.5,6.6l0.6,48.2l44.1-8
	l-6.3,21.9L801,192l-0.8-149.4l64.4-11.7v20.8l-38.6,7l0.3,38.9l36.5-6.6L862.8,111.7z"/>
<linearGradient id="SVGID_00000039856429111801973860000001903517608149844634_" gradientUnits="userSpaceOnUse" x1="-110.0394" y1="281.2273" x2="1001.1006" y2="509.4073" gradientTransform="matrix(1 0 0 -1 0 480.7244)">
	<stop  offset="0" style="stop-color:#A2EEFF"/>
	<stop  offset="1" style="stop-color:#D057C9"/>
</linearGradient>
<polygon style="fill:url(#SVGID_00000039856429111801973860000001903517608149844634_);" points="864.9,7.5 -11,157.2 -7.7,170.7 
	865.4,21.1 "/>
<linearGradient id="SVGID_00000033329302915939249850000013015089460286743448_" gradientUnits="userSpaceOnUse" x1="-42.9498" y1="3.7592" x2="1068.2001" y2="231.9392" gradientTransform="matrix(1 0 0 -1 0 480.7244)">
	<stop  offset="0" style="stop-color:#A2EEFF"/>
	<stop  offset="1" style="stop-color:#D057C9"/>
</linearGradient>
<polygon style="fill:url(#SVGID_00000033329302915939249850000013015089460286743448_);" points="162.9,426.5 1038.8,276.8 
	1035.4,263.3 162.3,412.8 "/>
<path class="st10" d="M302.6,303.9c4.5,26.5,6.7,40.4,7.8,49.2h0.1c1.3-7,3.8-16.6,13.3-52.6l4.9-0.8c5.3,32.1,7,41.3,7.8,49.1h0.1
	c0.9-6.7,4.2-18.3,12.9-52.4l4.9-0.8l-15.6,58.3l-5.1,0.8c-3.2-19.5-7.1-41.5-7.9-48.6h-0.1c-1.4,8.7-6.4,27.7-12.7,51.9l-5.4,0.9
	l-9.5-54.3L302.6,303.9z"/>
<path class="st10" d="M364.9,321.7c-0.2,4,0,8,0.5,12c1.3,7.8,4.5,11.9,10.9,10.9c7.3-1.2,9.4-7.8,10.3-11.2l4.4-0.7
	c-0.8,5-4,14.5-14.7,16.3c-14.9,2.4-16.7-14.5-15.9-27.7c1.1-19,7.2-28.6,17-30.2c11.4-1.8,16.4,7.1,15.2,22.1l-0.3,4.2L364.9,321.7
	z M388,313.8c0.3-3.2,0.3-6.3-0.1-9.5c-0.9-5.8-3.6-10.2-10.5-9c-7.8,1.2-11.4,10.7-12.3,22.2L388,313.8z"/>
<path class="st10" d="M431.2,326.8c-0.1,2.8-0.5,9.5-0.4,12.3l-4.4,0.7c-0.1-2.4-0.1-4.9,0.1-7.3c-1.8,5.9-6.3,9.3-12.6,10.3
	c-9.9,1.6-14.2-6.4-13.7-15.5c0.7-10.3,7.4-14.9,16.1-18c3.6-1.2,7.6-2.1,11.5-3.1l0.3-6.9c0.3-6.5-1.7-11.9-10.5-10.5
	c-6.4,1-8.8,5-9.4,12.3l-4.5,0.7c0.3-9.1,4.2-15.8,13.9-17.3c9.1-1.5,15.5,2.8,14.9,14L431.2,326.8z M427.8,310.4
	c-3.5,0.9-7,1.7-10.2,2.8c-6.9,2.3-12.2,6-12.6,14.1c-0.3,5.7,2.2,12.3,9.4,11.1c8.5-1.4,12.4-8.9,13.1-22.8L427.8,310.4z"/>
<path class="st10" d="M446.8,299.6c0.5-8.8,0.7-14.6,0.7-19l4.3-0.7c0,1.6,0.1,4.8-0.2,10.4c2.8-7.9,8.5-12.4,14.7-13.5l-0.4,5.5
	c-9.6,2-14.4,11-14.9,21.2l-1.6,32.6l-4.5,0.7L446.8,299.6z"/>
<path class="st10" d="M487.5,274.2l8.3-1.4l0.8-15.6l4.4-0.7l-0.8,15.6l9.9-1.6l-0.2,4.3l-9.9,1.6l-1.8,39.7
	c-0.2,4.7,0.2,8.6,5.2,7.8c1.7-0.3,3.3-0.8,4.9-1.5l-0.3,4.1c-1.6,0.9-3.4,1.5-5.2,1.7c-5.9,1-9.6-1.6-9.1-10l2-41.2l-8.3,1.4
	L487.5,274.2z"/>
<path class="st10" d="M525.1,244.4l-1.7,32.2c2-5.5,6.3-10.1,13-11.2c7.2-1.2,13.5,2.5,12.8,15l-2,39.9l-4.5,0.7l2-39.1
	c0.4-7.8-1.2-13.1-9.2-11.8c-8.4,1.4-12.2,10.1-12.8,21.5l-1.5,32.9l-4.6,0.8l4-80.2L525.1,244.4z"/>
<path class="st10" d="M565,289.4c-0.2,4,0,8,0.5,12c1.2,7.8,4.5,11.9,10.9,10.9c7.3-1.2,9.4-7.8,10.3-11.2l4.4-0.7
	c-0.8,5-4,14.5-14.7,16.3c-14.8,2.4-16.7-14.5-15.9-27.7c1.1-19,7.2-28.6,17-30.2c11.4-1.8,16.4,7.1,15.2,22.1l-0.3,4.2L565,289.4z
	 M588.2,281.6c0.3-3.2,0.3-6.3-0.1-9.5c-0.9-5.8-3.6-10.2-10.5-9c-7.8,1.2-11.3,10.7-12.3,22.2L588.2,281.6z"/>
<path class="st10" d="M623,308.1l4-80.2l4.5-0.7l-4,80.2L623,308.1z"/>
<path class="st10" d="M644.6,248.9l4.5-0.7l-2.8,56.3l-4.5,0.7L644.6,248.9z M645.8,224.9l4.5-0.7l-0.6,10.9l-4.5,0.7L645.8,224.9z"
	/>
<path class="st10" d="M691.3,294.7c-0.7,14.3-3.4,24.6-16.3,26.7c-13.2,2.1-15.8-6.9-16.4-12.8l4.6-0.8c0.7,4.8,2.8,10.7,11.5,9.3
	c9.1-1.5,11.5-10.1,12.1-21.5l0.4-7.1c-2.1,6.3-6,10.1-12.3,11.2c-12.6,2-15.7-11.6-14.9-25.9c1-17,6-29.3,16.9-31.1
	c7.3-1.2,11.2,2.9,12.3,7c0.2-2.9,0.6-6.9,0.8-8.2l4.4-0.7c-0.2,2.2-0.7,8.4-1,15.8L691.3,294.7z M664.4,273.9
	c-0.5,12.8,1.6,22.9,10.5,21.5c10-1.6,12.7-14.5,13.2-25.8c0.8-15.9-2.1-24-11-22.5C668.7,248.5,665,260.1,664.4,273.9z"/>
<path class="st10" d="M714.1,214l-1.7,32.2c2-5.5,6.3-10.1,13-11.2c7.2-1.2,13.5,2.5,12.8,15l-2,39.9l-4.5,0.7l2-39.1
	c0.4-7.8-1.2-13.1-9.2-11.8c-8.4,1.4-12.2,10.1-12.8,21.5l-1.5,32.9l-4.6,0.8l4-80.2L714.1,214z"/>
<path class="st10" d="M745.8,232.6l8.3-1.3l0.8-15.6l4.4-0.7l-0.8,15.6l9.9-1.6l-0.2,4.3l-9.9,1.6l-1.8,39.8
	c-0.2,4.7,0.2,8.6,5.2,7.8c1.7-0.3,3.3-0.8,4.9-1.5l-0.3,4.1c-1.6,0.9-3.4,1.5-5.3,1.8c-5.9,1-9.6-1.6-9.2-10l2-41.2l-8.3,1.3
	L745.8,232.6z"/>
</svg>
