<?xml version="1.0" encoding="utf-8"?>
<!-- Generator: Adobe Illustrator 25.4.1, SVG Export Plug-In . SVG Version: 6.00 Build 0)  -->
<svg version="1.1" id="Capa_1" xmlns="http://www.w3.org/2000/svg" xmlns:xlink="http://www.w3.org/1999/xlink" x="0px" y="0px"
	 viewBox="0 0 1475.4 503.1" style="enable-background:new 0 0 1475.4 503.1;" xml:space="preserve">
<style type="text/css">
	.st0{fill:url(#SVGID_1_);}
	.st1{fill:url(#SVGID_00000121981524374415246170000006193044101393721006_);}
	.st2{fill:url(#SVGID_00000150060867689290651300000011815454860181465493_);}
	.st3{fill:url(#SVGID_00000072967548880145605090000015004488589508780974_);}
	.st4{fill:url(#SVGID_00000039836032214483126740000001779398932717543585_);}
	.st5{fill:url(#SVGID_00000075121094945441745370000013670904385347774361_);}
	.st6{fill:url(#SVGID_00000171706848034901426060000015540782783217338765_);}
	.st7{fill:url(#SVGID_00000065766347209535714080000003055028887645629326_);}
	.st8{fill:url(#SVGID_00000140013126233474213690000016900493013327000753_);}
</style>
<linearGradient id="SVGID_1_" gradientUnits="userSpaceOnUse" x1="21.9543" y1="343.1328" x2="71.0697" y2="633.3965" gradientTransform="matrix(0.9997 2.375901e-02 -2.375901e-02 0.9997 11.9109 -118.1047)">
	<stop  offset="0" style="stop-color:#A2EEFF"/>
	<stop  offset="1" style="stop-color:#1B4DD7"/>
</linearGradient>
<path class="st0" d="M5,234.1l46.8-7.4l-4.4,231.7l76.3-12.1l-4.1,37.9L0,503.1L5,234.1z"/>
<linearGradient id="SVGID_00000044874995259501807600000001055674835667655586_" gradientUnits="userSpaceOnUse" x1="180.734" y1="316.2675" x2="229.8494" y2="606.5132" gradientTransform="matrix(0.9997 2.375901e-02 -2.375901e-02 0.9997 11.9109 -118.1047)">
	<stop  offset="0" style="stop-color:#A2EEFF"/>
	<stop  offset="1" style="stop-color:#1B4DD7"/>
</linearGradient>
<path style="fill:url(#SVGID_00000044874995259501807600000001055674835667655586_);" d="M258.6,338.6l-66,10.3l-1,86.8l79.7-12.5
	l-6.9,38.4l-120.6,18.9l5-268.9l116.4-18.3l-0.9,37.4l-69.6,11l-1.1,70l66-10.3L258.6,338.6z"/>
<linearGradient id="SVGID_00000165942213125211740480000002666345609215885968_" gradientUnits="userSpaceOnUse" x1="338.0359" y1="289.6454" x2="387.1693" y2="579.8912" gradientTransform="matrix(0.9997 2.375901e-02 -2.375901e-02 0.9997 11.9109 -118.1047)">
	<stop  offset="0" style="stop-color:#A2EEFF"/>
	<stop  offset="1" style="stop-color:#1B4DD7"/>
</linearGradient>
<path style="fill:url(#SVGID_00000165942213125211740480000002666345609215885968_);" d="M299.1,188l55.7-8.8
	c68.7-10.8,87.2,22.2,86,78.2l-2,101c-1.1,47.9-9.8,77.4-74.3,87.4l-70.3,11.1L299.1,188z M341,415.9l15-2.5
	c27.8-4.4,35-18.4,35.5-48l2-114.3c0.7-28.1-4.9-43.3-34.2-38.6l-14.5,2.4L341,415.9z"/>
<linearGradient id="SVGID_00000033348069271081086810000012321673729517343653_" gradientUnits="userSpaceOnUse" x1="583.0457" y1="248.1774" x2="632.1611" y2="538.441" gradientTransform="matrix(0.9997 2.375901e-02 -2.375901e-02 0.9997 11.9109 -118.1047)">
	<stop  offset="0" style="stop-color:#A2EEFF"/>
	<stop  offset="1" style="stop-color:#1B4DD7"/>
</linearGradient>
<path style="fill:url(#SVGID_00000033348069271081086810000012321673729517343653_);" d="M538.6,150.3l46.8-7.4l-2,107.3l49-7.7
	l2-107.3l47.2-7.3l-5,268.9l-47.2,7.3l2.1-124.2l-49,7.7l-2.1,124.2l-46.6,7.4L538.6,150.3z"/>
<linearGradient id="SVGID_00000124134163553829672150000011102910906757253523_" gradientUnits="userSpaceOnUse" x1="764.6142" y1="217.4536" x2="813.7477" y2="507.6992" gradientTransform="matrix(0.9997 2.375901e-02 -2.375901e-02 0.9997 11.9109 -118.1047)">
	<stop  offset="0" style="stop-color:#A2EEFF"/>
	<stop  offset="1" style="stop-color:#1B4DD7"/>
</linearGradient>
<path style="fill:url(#SVGID_00000124134163553829672150000011102910906757253523_);" d="M863.3,172.6l-2.1,126
	c-0.7,45.7-11,74.8-67.9,83.8c-55.1,8.6-77.7-18.8-77.3-65.1l1.5-132.2c0.6-45.9,23.3-70.4,66.7-77.3
	C833.9,100,864.3,123.6,863.3,172.6z M765.4,177.8l-2,139c-0.5,19.3,5.1,34.7,27,31.3c18.1-2.8,22.9-16.7,23.4-37.6l2.2-138.8
	c0.3-19.8-7.1-32.6-27.9-29.3C772.5,144.8,765.5,156.4,765.4,177.8L765.4,177.8z"/>
<linearGradient id="SVGID_00000093863465792486693610000013685509712488082870_" gradientUnits="userSpaceOnUse" x1="944.9327" y1="184.7054" x2="994.0662" y2="474.951" gradientTransform="matrix(0.9997 2.375901e-02 -2.375901e-02 0.9997 11.9109 -118.1047)">
	<stop  offset="0" style="stop-color:#A2EEFF"/>
	<stop  offset="1" style="stop-color:#1B4DD7"/>
</linearGradient>
<path style="fill:url(#SVGID_00000093863465792486693610000013685509712488082870_);" d="M1044.3,144.1l-2.1,126
	c-0.7,45.7-11,74.8-67.9,83.8c-55.1,8.6-77.7-18.8-77.3-65.1l1.5-132.2c0.6-45.9,23.3-70.4,66.7-77.3
	C1014.9,71.6,1045.3,95.2,1044.3,144.1z M946.4,149.3l-2,139c-0.5,19.3,5.1,34.7,27,31.3c18.1-2.8,22.9-16.7,23.4-37.6l2.2-138.8
	c0.3-19.8-7.1-32.6-27.9-29.3C953.5,116.4,946.6,127.9,946.4,149.3L946.4,149.3z"/>
<linearGradient id="SVGID_00000078040317075142527590000014575415432971162296_" gradientUnits="userSpaceOnUse" x1="1120.6467" y1="154.963" x2="1169.7621" y2="445.2267" gradientTransform="matrix(0.9997 2.375901e-02 -2.375901e-02 0.9997 11.9109 -118.1047)">
	<stop  offset="0" style="stop-color:#A2EEFF"/>
	<stop  offset="1" style="stop-color:#1B4DD7"/>
</linearGradient>
<path style="fill:url(#SVGID_00000078040317075142527590000014575415432971162296_);" d="M1083.8,64.7l55.5-8.8
	c68.7-10.8,87.2,22.2,86,78.2l-2,101c-1,47.7-9.8,77.2-74.3,87.4l-70.3,11.1L1083.8,64.7z M1125.5,292.6l15.2-2.3
	c27.8-4.4,35-18.4,35.5-48l2.2-114.3c0.7-28.1-4.9-43.3-34.2-38.6l-14.5,2.4L1125.5,292.6z"/>
<linearGradient id="SVGID_00000001631813152520627930000010979548194190590373_" gradientUnits="userSpaceOnUse" x1="1259.2095" y1="131.5235" x2="1308.325" y2="421.7692" gradientTransform="matrix(0.9997 2.375901e-02 -2.375901e-02 0.9997 11.9109 -118.1047)">
	<stop  offset="0" style="stop-color:#A2EEFF"/>
	<stop  offset="1" style="stop-color:#1B4DD7"/>
</linearGradient>
<path style="fill:url(#SVGID_00000001631813152520627930000010979548194190590373_);" d="M1311.4,28.9l-5,268.9l-46.6,7.4l5-268.9
	L1311.4,28.9z"/>
<linearGradient id="SVGID_00000034773314945219001680000015337553947431315866_" gradientUnits="userSpaceOnUse" x1="1382.0767" y1="110.7188" x2="1431.1921" y2="400.9825" gradientTransform="matrix(0.9997 2.375901e-02 -2.375901e-02 0.9997 11.9109 -118.1047)">
	<stop  offset="0" style="stop-color:#A2EEFF"/>
	<stop  offset="1" style="stop-color:#1B4DD7"/>
</linearGradient>
<path style="fill:url(#SVGID_00000034773314945219001680000015337553947431315866_);" d="M1462.7,149.4l-66,10.3l-1,86.8l79.7-12.5
	l-12.3,39.1L1348,291.2l5-268.9L1469.4,4l-0.9,37.4l-69.8,10.9l-1.1,70l66-10.3L1462.7,149.4z"/>
</svg>
