<svg id="Layer_1" data-name="Layer 1" xmlns="http://www.w3.org/2000/svg" xmlns:xlink="http://www.w3.org/1999/xlink" viewBox="0 0 280.67 150.03"><defs><style>.cls-1{fill:url(#Degradado_sin_nombre_15);}.cls-2{fill:url(#Degradado_sin_nombre_15-2);}.cls-3{fill:url(#Degradado_sin_nombre_15-3);}.cls-4{fill:url(#Degradado_sin_nombre_15-4);}.cls-5{fill:url(#Degradado_sin_nombre_15-5);}.cls-6{fill:url(#Degradado_sin_nombre_15-6);}.cls-7{fill:url(#Degradado_sin_nombre_15-7);}.cls-8{fill:url(#Degradado_sin_nombre_15-8);}.cls-9{fill:url(#Degradado_sin_nombre_15-9);}.cls-10{fill:url(#Degradado_sin_nombre_15-10);}.cls-11{fill:url(#Degradado_sin_nombre_15-11);}.cls-12{fill:url(#Degradado_sin_nombre_15-12);}.cls-13,.cls-14,.cls-15,.cls-16{stroke-miterlimit:10;}.cls-13{fill:url(#Degradado_sin_nombre_11);stroke:url(#Degradado_sin_nombre_11-2);}.cls-14{fill:url(#Degradado_sin_nombre_11-3);stroke:url(#Degradado_sin_nombre_11-4);}.cls-15{fill:url(#Degradado_sin_nombre_11-5);stroke:url(#Degradado_sin_nombre_11-6);}.cls-16{fill:url(#Degradado_sin_nombre_11-7);stroke:url(#Degradado_sin_nombre_11-8);}.cls-17{fill:none;}.cls-18{fill:url(#Degradado_sin_nombre_16);}.cls-19{fill:url(#Degradado_sin_nombre_16-2);}</style><linearGradient id="Degradado_sin_nombre_15" x1="219.84" y1="141.05" x2="219.84" y2="108.4" gradientUnits="userSpaceOnUse"><stop offset="0" stop-color="#9a009b"/><stop offset="1" stop-color="#dc44cd"/></linearGradient><linearGradient id="Degradado_sin_nombre_15-2" x1="219.84" y1="141.69" x2="219.84" y2="107.76" xlink:href="#Degradado_sin_nombre_15"/><linearGradient id="Degradado_sin_nombre_15-3" x1="250.17" y1="141.05" x2="250.17" y2="108.4" xlink:href="#Degradado_sin_nombre_15"/><linearGradient id="Degradado_sin_nombre_15-4" x1="250.17" y1="141.69" x2="250.17" y2="107.76" xlink:href="#Degradado_sin_nombre_15"/><linearGradient id="Degradado_sin_nombre_15-5" x1="280.99" y1="141.05" x2="280.99" y2="108.4" xlink:href="#Degradado_sin_nombre_15"/><linearGradient id="Degradado_sin_nombre_15-6" x1="280.99" y1="141.69" x2="280.99" y2="107.76" xlink:href="#Degradado_sin_nombre_15"/><linearGradient id="Degradado_sin_nombre_15-7" x1="311.21" y1="141.05" x2="311.21" y2="108.4" xlink:href="#Degradado_sin_nombre_15"/><linearGradient id="Degradado_sin_nombre_15-8" x1="311.21" y1="141.69" x2="311.21" y2="107.76" xlink:href="#Degradado_sin_nombre_15"/><linearGradient id="Degradado_sin_nombre_15-9" x1="331.08" y1="141.3" x2="331.08" y2="108.4" xlink:href="#Degradado_sin_nombre_15"/><linearGradient id="Degradado_sin_nombre_15-10" x1="331.08" y1="141.94" x2="331.08" y2="107.76" xlink:href="#Degradado_sin_nombre_15"/><linearGradient id="Degradado_sin_nombre_15-11" x1="350.95" y1="141.05" x2="350.95" y2="108.4" xlink:href="#Degradado_sin_nombre_15"/><linearGradient id="Degradado_sin_nombre_15-12" x1="350.95" y1="141.69" x2="350.95" y2="107.76" xlink:href="#Degradado_sin_nombre_15"/><linearGradient id="Degradado_sin_nombre_11" x1="84.83" y1="124.85" x2="109.2" y2="124.85" gradientUnits="userSpaceOnUse"><stop offset="0" stop-color="#007cf7"/><stop offset="1" stop-color="#2743c1"/></linearGradient><linearGradient id="Degradado_sin_nombre_11-2" x1="97.02" y1="143.5" x2="97.02" y2="106.2" xlink:href="#Degradado_sin_nombre_11"/><linearGradient id="Degradado_sin_nombre_11-3" x1="121.58" y1="124.85" x2="151.59" y2="124.85" xlink:href="#Degradado_sin_nombre_11"/><linearGradient id="Degradado_sin_nombre_11-4" x1="136.59" y1="143.5" x2="136.59" y2="106.2" xlink:href="#Degradado_sin_nombre_11"/><linearGradient id="Degradado_sin_nombre_11-5" x1="169.09" y1="124.85" x2="188.87" y2="124.85" xlink:href="#Degradado_sin_nombre_11"/><linearGradient id="Degradado_sin_nombre_11-6" x1="178.98" y1="138.35" x2="178.98" y2="111.35" xlink:href="#Degradado_sin_nombre_11"/><linearGradient id="Degradado_sin_nombre_11-7" x1="163.97" y1="124.85" x2="193.98" y2="124.85" xlink:href="#Degradado_sin_nombre_11"/><linearGradient id="Degradado_sin_nombre_11-8" x1="178.98" y1="143.5" x2="178.98" y2="106.2" xlink:href="#Degradado_sin_nombre_11"/><linearGradient id="Degradado_sin_nombre_16" x1="223.69" y1="51.56" x2="227.19" y2="201.54" gradientUnits="userSpaceOnUse"><stop offset="0" stop-color="#007cf7"/><stop offset="1" stop-color="#dc44cd"/></linearGradient><linearGradient id="Degradado_sin_nombre_16-2" x1="222.66" y1="51.58" x2="226.17" y2="201.57" xlink:href="#Degradado_sin_nombre_16"/></defs><path class="cls-1" d="M212.32,111.36v10.39h15V111.36a2.85,2.85,0,0,1,.85-2.08,3,3,0,0,1,5,2.08v26.73a2.95,2.95,0,1,1-5.89,0V127.68h-15v10.41a2.88,2.88,0,0,1-.85,2.09,2.95,2.95,0,0,1-4.18,0,2.89,2.89,0,0,1-.86-2.09V111.36a2.86,2.86,0,0,1,.86-2.08,2.92,2.92,0,0,1,4.18,0A2.85,2.85,0,0,1,212.32,111.36Zm19.79-.24a1.81,1.81,0,0,0-1.81-1.81,1.73,1.73,0,0,0-1.27.53,1.75,1.75,0,0,0-.53,1.28V122.9H211.18V111.12a1.81,1.81,0,1,0-3.61,0v27.21a1.77,1.77,0,0,0,.53,1.29,1.8,1.8,0,0,0,2.55,0,1.77,1.77,0,0,0,.53-1.29v-11.8H228.5v11.8a1.77,1.77,0,0,0,.53,1.29,1.73,1.73,0,0,0,1.27.53,1.75,1.75,0,0,0,1.28-.53,1.77,1.77,0,0,0,.53-1.29Z" transform="translate(-84.33 -51.55)"/><path class="cls-2" d="M230.3,141.69a3.42,3.42,0,0,1-2.54-1.06,3.51,3.51,0,0,1-1-2.54v-9.77H213v9.77a3.51,3.51,0,0,1-1,2.54,3.59,3.59,0,0,1-5.09,0,3.51,3.51,0,0,1-1-2.54V111.36a3.49,3.49,0,0,1,1-2.53,3.56,3.56,0,0,1,5.09,0,3.49,3.49,0,0,1,1,2.53v9.75h13.76v-9.75a3.49,3.49,0,0,1,1-2.53,3.43,3.43,0,0,1,2.54-1.07,3.47,3.47,0,0,1,2.53,1.06,3.51,3.51,0,0,1,1.06,2.54v26.73a3.49,3.49,0,0,1-1.06,2.54A3.43,3.43,0,0,1,230.3,141.69Zm-19.76-15.8h18.6v12.44a1.14,1.14,0,0,0,.34.84,1.09,1.09,0,0,0,.82.34,1.18,1.18,0,0,0,1.16-1.18V111.12a1.08,1.08,0,0,0-.34-.83,1.16,1.16,0,0,0-1.64,0,1.12,1.12,0,0,0-.34.83v12.43h-18.6V111.12a1.16,1.16,0,0,0-1.16-1.17,1.09,1.09,0,0,0-.82.34,1.08,1.08,0,0,0-.34.83v27.21a1.16,1.16,0,0,0,1.16,1.18,1.08,1.08,0,0,0,.82-.35,1.1,1.1,0,0,0,.34-.83Z" transform="translate(-84.33 -51.55)"/><path class="cls-3" d="M250.17,141.05a13.6,13.6,0,0,1-12.36-8.25,13.09,13.09,0,0,1-1-5.23v-5.68a13.09,13.09,0,0,1,1-5.23,13.56,13.56,0,0,1,2.89-4.3,14.1,14.1,0,0,1,4.27-2.9,13,13,0,0,1,5.2-1.06,13.33,13.33,0,0,1,9.48,4,13.73,13.73,0,0,1,2.89,4.3,13.27,13.27,0,0,1,1,5.23v5.68a13.24,13.24,0,0,1-3.93,9.5,13.56,13.56,0,0,1-4.28,2.92A12.8,12.8,0,0,1,250.17,141.05Zm0-1.15a11.75,11.75,0,0,0,4.76-1,12.47,12.47,0,0,0,6.55-6.59,11.92,11.92,0,0,0,1-4.77v-5.68a12,12,0,0,0-1-4.78,12.28,12.28,0,0,0-2.65-3.93,12.09,12.09,0,0,0-8.66-3.63,12,12,0,0,0-4.76,1,12.68,12.68,0,0,0-3.9,2.66,12.44,12.44,0,0,0-2.65,3.93,12.14,12.14,0,0,0-1,4.78v5.68a12.09,12.09,0,0,0,1,4.77,12.6,12.6,0,0,0,2.65,3.94A12.11,12.11,0,0,0,250.17,139.9Zm0-3.62a8.27,8.27,0,0,1-3.35-.69,8.61,8.61,0,0,1-2.76-1.88,9,9,0,0,1-1.87-2.77,8.49,8.49,0,0,1-.68-3.37v-5.68a8.46,8.46,0,0,1,.68-3.37,9,9,0,0,1,1.87-2.78,8.56,8.56,0,0,1,6.11-2.56,8.44,8.44,0,0,1,3.36.68,9,9,0,0,1,2.75,1.88,8.67,8.67,0,0,1,1.87,2.78,8.29,8.29,0,0,1,.68,3.37v5.68a8.32,8.32,0,0,1-.68,3.37,8.78,8.78,0,0,1-8,5.34Zm0-1.15a7.39,7.39,0,0,0,5.3-2.23,7.31,7.31,0,0,0,2.22-5.33v-5.68a7.24,7.24,0,0,0-2.22-5.33,7.15,7.15,0,0,0-5.3-2.23,7.37,7.37,0,0,0-5.29,2.23,7.24,7.24,0,0,0-2.22,5.33v5.68a7.31,7.31,0,0,0,2.22,5.33A7.14,7.14,0,0,0,250.17,135.13Z" transform="translate(-84.33 -51.55)"/><path class="cls-4" d="M250.17,141.69a14.1,14.1,0,0,1-14-14.12v-5.68a13.79,13.79,0,0,1,1.1-5.48,14.25,14.25,0,0,1,3-4.5,14.47,14.47,0,0,1,4.48-3,13.52,13.52,0,0,1,5.45-1.12,14,14,0,0,1,9.92,4.14,14.46,14.46,0,0,1,3,4.51,14,14,0,0,1,1.09,5.48v5.68a14,14,0,0,1-1.09,5.48,14.24,14.24,0,0,1-3,4.48,14.49,14.49,0,0,1-4.47,3.05A13.53,13.53,0,0,1,250.17,141.69Zm0-31.5a11.18,11.18,0,0,0-4.5.92,11.9,11.9,0,0,0-3.7,2.52,12,12,0,0,0-2.52,3.73,11.48,11.48,0,0,0-.9,4.53v5.68a11.4,11.4,0,0,0,.9,4.52,12,12,0,0,0,2.52,3.74,11.54,11.54,0,0,0,8.2,3.43,11.23,11.23,0,0,0,4.51-.92,11.77,11.77,0,0,0,6.21-6.25,11.41,11.41,0,0,0,.91-4.52v-5.68a11.49,11.49,0,0,0-.91-4.53,11.84,11.84,0,0,0-2.51-3.73A11.54,11.54,0,0,0,250.17,110.19Zm0,26.73a9,9,0,0,1-3.61-.74,9.53,9.53,0,0,1-2.95-2,9.35,9.35,0,0,1-2-3,9,9,0,0,1-.74-3.62v-5.68a9.06,9.06,0,0,1,.74-3.63,9.42,9.42,0,0,1,2-3,9.21,9.21,0,0,1,6.56-2.75,9,9,0,0,1,3.61.73,9.5,9.5,0,0,1,5,5,9.06,9.06,0,0,1,.73,3.63v5.68a9,9,0,0,1-.73,3.62,9.52,9.52,0,0,1-2,3A9.22,9.22,0,0,1,250.17,136.92Zm0-21.95a6.74,6.74,0,0,0-4.85,2,6.56,6.56,0,0,0-2,4.87v5.68a6.59,6.59,0,0,0,2,4.87,6.48,6.48,0,0,0,4.84,2.05,6.71,6.71,0,0,0,4.85-2.05,6.63,6.63,0,0,0,2-4.87v-5.68a6.95,6.95,0,0,0-6.88-6.92Z" transform="translate(-84.33 -51.55)"/><path class="cls-5" d="M281,141.05a13.46,13.46,0,0,1-13.41-13.48v-5.68a13.1,13.1,0,0,1,1.05-5.23,13.56,13.56,0,0,1,2.89-4.3,14,14,0,0,1,4.27-2.9,13,13,0,0,1,5.2-1.06,13.33,13.33,0,0,1,9.48,4,13.73,13.73,0,0,1,2.89,4.3,13.27,13.27,0,0,1,1,5.23v5.68a13.24,13.24,0,0,1-3.93,9.5,13.68,13.68,0,0,1-4.28,2.92A12.8,12.8,0,0,1,281,141.05Zm0-1.15a11.75,11.75,0,0,0,4.76-1,12.42,12.42,0,0,0,3.9-2.65,12.6,12.6,0,0,0,2.65-3.94,11.92,11.92,0,0,0,1-4.77v-5.68a12,12,0,0,0-1-4.78,12.44,12.44,0,0,0-2.65-3.93,12.09,12.09,0,0,0-8.66-3.63,12,12,0,0,0-4.76,1,12.56,12.56,0,0,0-6.55,6.59,12.14,12.14,0,0,0-.95,4.78v5.68a12.09,12.09,0,0,0,.95,4.77,12.6,12.6,0,0,0,2.65,3.94A12.1,12.1,0,0,0,281,139.9Zm0-3.62a8.23,8.23,0,0,1-3.35-.69,8.61,8.61,0,0,1-2.76-1.88,9,9,0,0,1-1.87-2.77,8.49,8.49,0,0,1-.68-3.37v-5.68a8.46,8.46,0,0,1,.68-3.37,9,9,0,0,1,1.87-2.78,8.54,8.54,0,0,1,6.11-2.56,8.36,8.36,0,0,1,3.35.68,9,9,0,0,1,2.76,1.88,8.84,8.84,0,0,1,1.87,2.78,8.46,8.46,0,0,1,.68,3.37v5.68a8.49,8.49,0,0,1-.68,3.37,8.79,8.79,0,0,1-1.87,2.77A8.55,8.55,0,0,1,281,136.28Zm0-1.15a7.41,7.41,0,0,0,5.3-2.23,7.31,7.31,0,0,0,2.22-5.33v-5.68a7.24,7.24,0,0,0-2.22-5.33,7.16,7.16,0,0,0-5.3-2.23,7.41,7.41,0,0,0-5.3,2.23,7.24,7.24,0,0,0-2.22,5.33v5.68a7.31,7.31,0,0,0,2.22,5.33A7.18,7.18,0,0,0,281,135.13Z" transform="translate(-84.33 -51.55)"/><path class="cls-6" d="M281,141.69a14.1,14.1,0,0,1-14.05-14.12v-5.68a13.79,13.79,0,0,1,1.1-5.48,14.25,14.25,0,0,1,3-4.5,14.47,14.47,0,0,1,4.48-3,13.52,13.52,0,0,1,5.45-1.12,14,14,0,0,1,9.92,4.14,14.46,14.46,0,0,1,3,4.51,14,14,0,0,1,1.09,5.48v5.68a14,14,0,0,1-1.09,5.48,14.24,14.24,0,0,1-3,4.48,14.49,14.49,0,0,1-4.47,3.05A13.56,13.56,0,0,1,281,141.69Zm0-31.5a11.18,11.18,0,0,0-4.5.92,11.92,11.92,0,0,0-6.22,6.25,11.48,11.48,0,0,0-.9,4.53v5.68a11.4,11.4,0,0,0,.9,4.52,11.8,11.8,0,0,0,2.52,3.74,11.54,11.54,0,0,0,8.2,3.43,11.15,11.15,0,0,0,4.5-.92,11.92,11.92,0,0,0,3.71-2.51,12.06,12.06,0,0,0,2.51-3.74,11.41,11.41,0,0,0,.91-4.52v-5.68a11.49,11.49,0,0,0-.91-4.53,12,12,0,0,0-2.51-3.73A11.54,11.54,0,0,0,281,110.19Zm0,26.73a9,9,0,0,1-3.61-.74,9.5,9.5,0,0,1-5-5,9.18,9.18,0,0,1-.73-3.62v-5.68a9.23,9.23,0,0,1,.73-3.63,9.62,9.62,0,0,1,2-3,9.19,9.19,0,0,1,6.56-2.75,9,9,0,0,1,3.61.73,9.61,9.61,0,0,1,3,2,9.77,9.77,0,0,1,2,3,9.06,9.06,0,0,1,.73,3.63v5.68a9,9,0,0,1-.73,3.62,9.52,9.52,0,0,1-2,3A9.23,9.23,0,0,1,281,136.92ZM281,115a6.72,6.72,0,0,0-4.85,2,6.56,6.56,0,0,0-2,4.87v5.68a6.59,6.59,0,0,0,2,4.87,6.48,6.48,0,0,0,4.84,2.05,6.71,6.71,0,0,0,4.85-2.05,6.63,6.63,0,0,0,2-4.87v-5.68a6.62,6.62,0,0,0-2-4.88A6.53,6.53,0,0,0,281,115Z" transform="translate(-84.33 -51.55)"/><path class="cls-7" d="M297.8,138.09v-26.7a3.37,3.37,0,0,1,.85-2.1,2.7,2.7,0,0,1,2-.89h10.55a13.29,13.29,0,0,1,5.21,1.07,13.84,13.84,0,0,1,4.26,2.89,13.56,13.56,0,0,1,2.89,4.3,13.1,13.1,0,0,1,1.05,5.23v5.68a13.3,13.3,0,0,1-3.94,9.5,13.52,13.52,0,0,1-4.27,2.92,12.8,12.8,0,0,1-5.2,1.06H300.75a2.82,2.82,0,0,1-2.09-.87A2.89,2.89,0,0,1,297.8,138.09Zm1.14-26.73V138a2,2,0,0,0,.52,1.33,1.66,1.66,0,0,0,1.29.57h10.46a11.78,11.78,0,0,0,4.76-1,12.42,12.42,0,0,0,3.9-2.65,12.6,12.6,0,0,0,2.65-3.94,11.92,11.92,0,0,0,1-4.77v-5.68a12,12,0,0,0-1-4.78,12.56,12.56,0,0,0-6.55-6.59,12,12,0,0,0-4.76-1H300.75a1.76,1.76,0,0,0-1.27.53A1.74,1.74,0,0,0,298.94,111.36Zm3.61,24.92v-23.1h8.66a8.39,8.39,0,0,1,3.35.68,8.84,8.84,0,0,1,4.63,4.66,8.46,8.46,0,0,1,.68,3.37v5.68a8.49,8.49,0,0,1-.68,3.37,9,9,0,0,1-1.87,2.77,8.61,8.61,0,0,1-2.76,1.88,8.23,8.23,0,0,1-3.35.69Zm1.14-1.15h7.52a7.16,7.16,0,0,0,5.3-2.23,7.31,7.31,0,0,0,2.22-5.33v-5.68a7.24,7.24,0,0,0-2.22-5.33,7.16,7.16,0,0,0-5.3-2.23h-7.52Z" transform="translate(-84.33 -51.55)"/><path class="cls-8" d="M311.21,141.69H300.75a3.43,3.43,0,0,1-2.55-1.06,3.51,3.51,0,0,1-1-2.54V111.34a4,4,0,0,1,1-2.48,3.36,3.36,0,0,1,2.47-1.1h10.57a13.81,13.81,0,0,1,5.46,1.13,14.5,14.5,0,0,1,4.46,3,14.26,14.26,0,0,1,3,4.51,13.79,13.79,0,0,1,1.1,5.48v5.68a14,14,0,0,1-4.13,10,14.25,14.25,0,0,1-4.47,3.05A13.48,13.48,0,0,1,311.21,141.69Zm-10.46-31.5a1.18,1.18,0,0,0-1.16,1.17V138a1.28,1.28,0,0,0,.35.9,1,1,0,0,0,.81.36h10.46a11.18,11.18,0,0,0,4.5-.92,11.74,11.74,0,0,0,6.22-6.25,11.4,11.4,0,0,0,.9-4.52v-5.68a11.48,11.48,0,0,0-.9-4.53,11.92,11.92,0,0,0-6.22-6.25,11.18,11.18,0,0,0-4.5-.92Zm10.46,26.73h-9.3V112.54h9.3a9,9,0,0,1,3.61.73,9.45,9.45,0,0,1,2.95,2,9.62,9.62,0,0,1,2,3,9.23,9.23,0,0,1,.73,3.63v5.68a9.22,9.22,0,0,1-.73,3.62,9.5,9.5,0,0,1-5,5A9,9,0,0,1,311.21,136.92Zm-6.88-2.43h6.88a6.51,6.51,0,0,0,4.84-2,6.64,6.64,0,0,0,2-4.88v-5.68a6.58,6.58,0,0,0-2-4.88,6.51,6.51,0,0,0-4.84-2h-6.88Z" transform="translate(-84.33 -51.55)"/><path class="cls-9" d="M334,111.36v27a2.87,2.87,0,0,1-.86,2.09,2.92,2.92,0,0,1-4.18,0,2.87,2.87,0,0,1-.86-2.09v-27a2.86,2.86,0,0,1,.86-2.08,2.92,2.92,0,0,1,4.18,0A2.86,2.86,0,0,1,334,111.36Zm-1.15,0a1.79,1.79,0,0,0-1.8-1.81,1.81,1.81,0,0,0-1.8,1.81v27a1.81,1.81,0,0,0,1.8,1.82,1.79,1.79,0,0,0,1.8-1.82Z" transform="translate(-84.33 -51.55)"/><path class="cls-10" d="M331.08,141.94a3.45,3.45,0,0,1-2.55-1.07,3.5,3.5,0,0,1-1-2.54v-27a3.6,3.6,0,0,1,3.59-3.6,3.45,3.45,0,0,1,2.55,1.07,3.49,3.49,0,0,1,1,2.53v27a3.5,3.5,0,0,1-1,2.54A3.45,3.45,0,0,1,331.08,141.94Zm0-31.75a1.09,1.09,0,0,0-.82.34,1.13,1.13,0,0,0-.34.83v27a1.1,1.1,0,0,0,.34.83,1.14,1.14,0,0,0,1.64,0,1.1,1.1,0,0,0,.34-.83v-27a1.13,1.13,0,0,0-.34-.83A1.09,1.09,0,0,0,331.08,110.19Z" transform="translate(-84.33 -51.55)"/><path class="cls-11" d="M361.41,114.33h-18v7.42H351a3,3,0,0,1,0,5.93h-7.52v7.45h18a3,3,0,0,1,2.08,5.05,2.83,2.83,0,0,1-2.08.87H340.49a2.82,2.82,0,0,1-2.09-.87,2.89,2.89,0,0,1-.86-2.09V111.36a2.86,2.86,0,0,1,.86-2.08,2.8,2.8,0,0,1,2.09-.88h20.92a2.8,2.8,0,0,1,2.08.88,3,3,0,0,1-2.08,5Zm-22.72,23.76a1.74,1.74,0,0,0,.52,1.28,1.71,1.71,0,0,0,1.28.53h20.92a1.71,1.71,0,0,0,1.28-.53,1.81,1.81,0,0,0-1.28-3.09H342.29v-9.75H351a1.77,1.77,0,0,0,1.28-.53,1.74,1.74,0,0,0,.52-1.28,1.79,1.79,0,0,0-1.8-1.82h-8.66v-9.72h19.12a1.75,1.75,0,0,0,1.28-.53,1.82,1.82,0,0,0,0-2.57,1.75,1.75,0,0,0-1.28-.53H340.49a1.79,1.79,0,0,0-1.8,1.81Z" transform="translate(-84.33 -51.55)"/><path class="cls-12" d="M361.41,141.69H340.49a3.44,3.44,0,0,1-2.55-1.06,3.51,3.51,0,0,1-1-2.54V111.36a3.49,3.49,0,0,1,1-2.53,3.45,3.45,0,0,1,2.55-1.07h20.92a3.61,3.61,0,0,1,2.53,6.16,3.46,3.46,0,0,1-2.53,1H344.07v6.14H351a3.44,3.44,0,0,1,2.53,1.07,3.6,3.6,0,0,1-2.53,6.14h-6.88v6.17h17.34a3.6,3.6,0,0,1,0,7.2Zm-20.92-31.5a1.09,1.09,0,0,0-.82.34,1.13,1.13,0,0,0-.34.83v26.73a1.12,1.12,0,0,0,.34.83,1.09,1.09,0,0,0,.82.34h20.92a1.09,1.09,0,0,0,.82-.34,1.08,1.08,0,0,0,.34-.83,1.16,1.16,0,0,0-1.16-1.17H341.65v-11H351a1.09,1.09,0,0,0,.82-.34,1.13,1.13,0,0,0,.34-.83,1.1,1.1,0,0,0-.34-.83,1.06,1.06,0,0,0-.82-.34h-9.3v-11h19.76a1.18,1.18,0,0,0,1.16-1.18,1.16,1.16,0,0,0-1.16-1.17Z" transform="translate(-84.33 -51.55)"/><path class="cls-13" d="M105.47,135.5H92.29v-25a3.64,3.64,0,0,0-1.08-2.64,3.71,3.71,0,0,0-5.29,0,3.65,3.65,0,0,0-1.09,2.64v28.8a3.65,3.65,0,0,0,1.09,2.64A3.56,3.56,0,0,0,88.56,143h16.91a3.76,3.76,0,0,0,3.73-3.75,3.74,3.74,0,0,0-3.73-3.75Zm0,5.15H88.56a1.38,1.38,0,0,1-1.38-1.4v-28.8a1.34,1.34,0,0,1,.4-1,1.32,1.32,0,0,1,1-.41,1.29,1.29,0,0,1,1,.41,1.31,1.31,0,0,1,.41,1v27.4h15.52a1.4,1.4,0,0,1,0,2.8Z" transform="translate(-84.33 -51.55)"/><path class="cls-14" d="M147.86,114.2a3.74,3.74,0,0,0,3.73-3.75,3.65,3.65,0,0,0-1.09-2.64,3.59,3.59,0,0,0-2.64-1.11H125.31a3.56,3.56,0,0,0-2.64,1.11,3.65,3.65,0,0,0-1.09,2.64v28.8a3.65,3.65,0,0,0,1.09,2.64,3.56,3.56,0,0,0,2.64,1.11h22.55a3.59,3.59,0,0,0,2.64-1.11,3.75,3.75,0,0,0,0-5.3,3.61,3.61,0,0,0-2.63-1.09H129v-6.91h7.55a3.76,3.76,0,0,0,3.73-3.75,3.66,3.66,0,0,0-1.1-2.65,3.6,3.6,0,0,0-2.63-1.1H129V114.2Zm-11.27,12H126.7v11.61h21.16a1.4,1.4,0,0,1,0,2.8H125.31a1.38,1.38,0,0,1-1.38-1.4v-28.8a1.34,1.34,0,0,1,.4-1,1.32,1.32,0,0,1,1-.41h22.55a1.29,1.29,0,0,1,1,.41,1.31,1.31,0,0,1,.41,1,1.4,1.4,0,0,1-1.39,1.4H126.7v11.59h9.89a1.29,1.29,0,0,1,1,.41,1.35,1.35,0,0,1,.41,1,1.37,1.37,0,0,1-.41,1A1.33,1.33,0,0,1,136.59,126.24Z" transform="translate(-84.33 -51.55)"/><path class="cls-15" d="M188.87,127.91v-6.12a9.77,9.77,0,0,0-.78-3.85,10,10,0,0,0-5.28-5.31,9.51,9.51,0,0,0-3.83-.78h-9.89v26H179a9.51,9.51,0,0,0,3.83-.78,10,10,0,0,0,5.28-5.31A9.77,9.77,0,0,0,188.87,127.91ZM171.43,114.2H179a7.14,7.14,0,0,1,5.32,2.24,7.23,7.23,0,0,1,2.22,5.35v6.12a7.27,7.27,0,0,1-2.23,5.35A7.1,7.1,0,0,1,179,135.5h-7.55Z" transform="translate(-84.33 -51.55)"/><path class="cls-16" d="M192.81,115.94a15.19,15.19,0,0,0-3.23-4.81,15.47,15.47,0,0,0-4.77-3.23,14.89,14.89,0,0,0-5.83-1.2H167.59a3.48,3.48,0,0,0-2.56,1.14,4.17,4.17,0,0,0-1.05,2.59v28.82a3.65,3.65,0,0,0,1.09,2.64A3.56,3.56,0,0,0,167.7,143H179a14.39,14.39,0,0,0,5.82-1.19,15.6,15.6,0,0,0,4.78-3.26,14.88,14.88,0,0,0,3.23-4.79,14.69,14.69,0,0,0,1.17-5.85v-6.12A14.69,14.69,0,0,0,192.81,115.94ZM179,140.65H167.7a1.23,1.23,0,0,1-1-.44,1.5,1.5,0,0,1-.41-1.06v-28.7a1.33,1.33,0,0,1,.41-1,1.36,1.36,0,0,1,1-.41H179a12.23,12.23,0,0,1,4.9,1,12.82,12.82,0,0,1,6.77,6.81,12.37,12.37,0,0,1,1,4.93v6.12a12.37,12.37,0,0,1-1,4.93,12.91,12.91,0,0,1-6.77,6.81A12.23,12.23,0,0,1,179,140.65Z" transform="translate(-84.33 -51.55)"/><path class="cls-17" d="M224.92,63.41a63.24,63.24,0,0,0-59,40.74H283.94A63.23,63.23,0,0,0,224.92,63.41Z" transform="translate(-84.33 -51.55)"/><path class="cls-17" d="M224.92,189.71a63.25,63.25,0,0,0,59.37-41.64H165.54A63.25,63.25,0,0,0,224.92,189.71Z" transform="translate(-84.33 -51.55)"/><path class="cls-18" d="M224.92,63.41a63.23,63.23,0,0,1,59,40.74h12.57a75,75,0,0,0-143.18,0h12.56A63.24,63.24,0,0,1,224.92,63.41Z" transform="translate(-84.33 -51.55)"/><path class="cls-19" d="M224.92,189.71a63.25,63.25,0,0,1-59.38-41.64H153.05a75,75,0,0,0,143.73,0H284.29A63.25,63.25,0,0,1,224.92,189.71Z" transform="translate(-84.33 -51.55)"/></svg>