<?xml version="1.0" encoding="utf-8"?>
<!-- Generator: Adobe Illustrator 25.4.1, SVG Export Plug-In . SVG Version: 6.00 Build 0)  -->
<svg version="1.1" id="Layer_1" xmlns="http://www.w3.org/2000/svg" xmlns:xlink="http://www.w3.org/1999/xlink" x="0px" y="0px"
	 viewBox="0 0 957.8 512" style="enable-background:new 0 0 957.8 512;" xml:space="preserve">
<style type="text/css">
	.st0{fill:url(#SVGID_1_);}
	.st1{fill:url(#SVGID_00000175300173299592112120000014730275903602220202_);}
	.st2{fill:url(#SVGID_00000126312698108844243230000012080274945689331618_);}
	.st3{fill:url(#SVGID_00000048458984318308257980000004637484173542013059_);}
	.st4{fill:url(#SVGID_00000052090856627540282720000002774234230421786782_);}
	.st5{fill:url(#SVGID_00000053503077873262072160000017470589091632533130_);}
	.st6{fill:url(#SVGID_00000101821803391792933110000002210045248448699010_);}
	.st7{fill:url(#SVGID_00000031198982947952054070000018285671067285618619_);}
	.st8{fill:url(#SVGID_00000149366214516645953920000013300112155818865075_);}
	.st9{fill:url(#SVGID_00000171709064243261615640000001881884459054924430_);}
	.st10{fill:url(#SVGID_00000044169818742715025300000003429190442091582109_);}
	.st11{fill:url(#SVGID_00000020399846946654485100000001948185056718590867_);}
	
		.st12{fill:url(#SVGID_00000165228804126699513430000002216853548397180822_);stroke:url(#SVGID_00000176731285342091939950000008439877376136395191_);stroke-miterlimit:10;}
	
		.st13{fill:url(#SVGID_00000029046657178754381550000001484868968276714659_);stroke:url(#SVGID_00000183945409451502638020000015219644733511446452_);stroke-miterlimit:10;}
	
		.st14{fill:url(#SVGID_00000057118808424994067580000015313963811854109846_);stroke:url(#SVGID_00000044140985284952313980000007345412621351982262_);stroke-miterlimit:10;}
	
		.st15{fill:url(#SVGID_00000148655885536159202020000007463686799949760663_);stroke:url(#SVGID_00000007415440325562197410000003370542336545830306_);stroke-miterlimit:10;}
	.st16{fill:none;}
	.st17{fill:url(#SVGID_00000176034866702258796950000003425864564165731460_);}
	.st18{fill:url(#SVGID_00000153664061540216810210000010904012456239339140_);}
</style>
<linearGradient id="SVGID_1_" gradientUnits="userSpaceOnUse" x1="545.8372" y1="156.8337" x2="545.8372" y2="268.543" gradientTransform="matrix(1 0 0 -1 -84.33 462.39)">
	<stop  offset="0" style="stop-color:#9A009B"/>
	<stop  offset="1" style="stop-color:#DC44CD"/>
</linearGradient>
<path class="st0" d="M436,204v35.5h51.3V204c0-2.7,1-5.2,2.9-7.1c4.2-3.8,10.7-3.4,14.5,0.8c1.6,1.7,2.5,4,2.6,6.3v91.5
	c0.3,5.6-3.9,10.3-9.5,10.7c-5.6,0.3-10.3-3.9-10.7-9.5c0-0.4,0-0.8,0-1.2v-35.6h-51.3v35.6c0,2.7-1,5.3-2.9,7.2
	c-3.9,3.9-10.3,4-14.3,0c0,0,0,0,0,0c-1.9-1.9-3-4.5-2.9-7.2V204c0-2.7,1-5.2,2.9-7.1c3.9-3.9,10.2-4,14.1-0.2
	c0.1,0.1,0.1,0.1,0.2,0.2C434.9,198.7,436,201.3,436,204z M503.7,203.2c0-3.4-2.8-6.2-6.2-6.2c-1.6,0-3.2,0.6-4.3,1.8
	c-1.2,1.1-1.8,2.7-1.8,4.4v40.3h-59.3v-40.3c0.3-3.4-2.3-6.4-5.7-6.6c-3.4-0.3-6.4,2.3-6.6,5.7c0,0.3,0,0.6,0,0.9v93.1
	c0,1.7,0.6,3.3,1.8,4.4c2.4,2.4,6.3,2.4,8.7,0c0,0,0,0,0,0c1.2-1.2,1.8-2.8,1.8-4.4v-40.4h59.3v40.4c0,1.7,0.6,3.3,1.8,4.4
	c1.1,1.2,2.7,1.8,4.3,1.8c1.6,0,3.2-0.6,4.4-1.8c1.2-1.2,1.8-2.8,1.8-4.4L503.7,203.2z"/>
<linearGradient id="SVGID_00000069370182057237993830000014317432871664752829_" gradientUnits="userSpaceOnUse" x1="546.2379" y1="154.642" x2="546.2379" y2="270.7351" gradientTransform="matrix(1 0 0 -1 -84.33 462.39)">
	<stop  offset="0" style="stop-color:#9A009B"/>
	<stop  offset="1" style="stop-color:#DC44CD"/>
</linearGradient>
<path style="fill:url(#SVGID_00000069370182057237993830000014317432871664752829_);" d="M497.5,307.7c-3.3,0.1-6.4-1.3-8.7-3.6
	c-2.3-2.3-3.5-5.5-3.4-8.7V262h-47.1v33.4c0.1,3.2-1.2,6.4-3.4,8.7c-4.8,4.8-12.6,4.8-17.4,0c0,0,0,0,0,0c-2.3-2.3-3.5-5.5-3.4-8.7
	V204c-0.1-3.2,1.2-6.4,3.4-8.7c4.7-4.8,12.4-4.9,17.2-0.2c0.1,0.1,0.1,0.1,0.2,0.2c2.3,2.3,3.5,5.4,3.4,8.7v33.4h47.1V204
	c-0.1-3.2,1.2-6.4,3.4-8.7c2.3-2.4,5.4-3.7,8.7-3.7c3.3,0,6.4,1.3,8.7,3.6c2.3,2.3,3.7,5.4,3.6,8.7v91.5c0,3.3-1.3,6.4-3.6,8.7
	C503.9,306.5,500.8,307.8,497.5,307.7z M429.9,253.7h63.6v42.6c0,1.1,0.4,2.1,1.2,2.9c0.7,0.8,1.7,1.2,2.8,1.2c2.2,0,4-1.8,4-4
	v-93.1c0-1.1-0.4-2.1-1.2-2.8c-1.5-1.5-4.1-1.5-5.6,0c-0.8,0.7-1.2,1.8-1.2,2.8v42.5h-63.6v-42.5c0-2.2-1.7-4-3.9-4c0,0,0,0,0,0
	c-1.1,0-2.1,0.4-2.8,1.2c-0.8,0.7-1.2,1.8-1.2,2.8v93.1c0,2.2,1.7,4,3.9,4c0,0,0,0,0.1,0c1.1,0,2.1-0.4,2.8-1.2
	c0.8-0.7,1.2-1.8,1.2-2.8L429.9,253.7z"/>
<linearGradient id="SVGID_00000028308646229829043560000011616690997016881803_" gradientUnits="userSpaceOnUse" x1="649.8218" y1="156.8307" x2="649.8218" y2="268.5435" gradientTransform="matrix(1 0 0 -1 -84.33 462.39)">
	<stop  offset="0" style="stop-color:#9A009B"/>
	<stop  offset="1" style="stop-color:#DC44CD"/>
</linearGradient>
<path style="fill:url(#SVGID_00000028308646229829043560000011616690997016881803_);" d="M565.5,305.6c-18.4-0.2-35-11.3-42.3-28.2
	c-2.4-5.7-3.5-11.8-3.4-17.9V240c-0.1-6.1,1.1-12.2,3.4-17.9c2.3-5.5,5.7-10.5,9.9-14.7c4.2-4.2,9.2-7.5,14.6-9.9
	c5.6-2.4,11.7-3.7,17.8-3.6c12.2,0,23.9,5,32.4,13.7c4.2,4.2,7.6,9.2,9.9,14.7c2.3,5.7,3.5,11.8,3.4,17.9v19.4
	c0.1,12.2-4.8,23.9-13.4,32.5c-4.2,4.2-9.2,7.6-14.6,10C577.6,304.4,571.5,305.6,565.5,305.6z M565.5,301.6c5.6,0,11.2-1.2,16.3-3.4
	c10.1-4.3,18.1-12.4,22.4-22.5c2.3-5.1,3.4-10.7,3.4-16.3v-19.4c0-5.6-1.2-11.2-3.4-16.4c-2.1-5-5.2-9.6-9.1-13.4
	c-7.8-8-18.5-12.4-29.6-12.4c-5.6,0-11.1,1.2-16.3,3.4c-5,2.2-9.5,5.3-13.3,9.1c-3.9,3.9-6.9,8.4-9.1,13.4
	c-2.2,5.2-3.4,10.7-3.4,16.4v19.4c0,5.6,1.2,11.2,3.4,16.3c2.1,5,5.2,9.6,9.1,13.5C543.7,297.2,554.3,301.6,565.5,301.6L565.5,301.6
	z M565.5,289.2c-3.9,0-7.8-0.8-11.5-2.4c-3.5-1.5-6.7-3.7-9.4-6.4c-2.7-2.7-4.9-5.9-6.4-9.5c-1.6-3.6-2.3-7.6-2.3-11.5V240
	c0-4,0.8-7.9,2.3-11.5c1.5-3.5,3.7-6.8,6.4-9.5c5.5-5.6,13-8.8,20.9-8.8c4,0,7.9,0.8,11.5,2.3c3.5,1.5,6.7,3.7,9.4,6.4
	c2.7,2.7,4.9,6,6.4,9.5c1.6,3.6,2.4,7.6,2.3,11.5v19.4c0,4-0.8,7.9-2.3,11.5C588.1,282,577.4,289.1,565.5,289.2L565.5,289.2z
	 M565.5,285.3c6.8,0,13.4-2.7,18.1-7.6c4.9-4.8,7.7-11.4,7.6-18.2V240c0.1-6.9-2.6-13.5-7.6-18.2c-4.7-5-11.3-7.7-18.1-7.6
	c-6.8,0-13.3,2.7-18.1,7.6c-5,4.8-7.7,11.4-7.6,18.2v19.4c-0.1,6.9,2.7,13.5,7.6,18.2C552.1,282.6,558.6,285.4,565.5,285.3
	L565.5,285.3z"/>
<linearGradient id="SVGID_00000142891547370979810740000017922318911642258610_" gradientUnits="userSpaceOnUse" x1="649.8738" y1="154.6399" x2="649.8738" y2="270.6306" gradientTransform="matrix(1 0 0 -1 -84.33 462.39)">
	<stop  offset="0" style="stop-color:#9A009B"/>
	<stop  offset="1" style="stop-color:#DC44CD"/>
</linearGradient>
<path style="fill:url(#SVGID_00000142891547370979810740000017922318911642258610_);" d="M565.5,307.7
	c-26.5-0.2-47.9-21.8-47.9-48.3V240c0-6.4,1.2-12.8,3.8-18.7c2.4-5.7,5.9-11,10.3-15.4c4.4-4.4,9.6-7.8,15.3-10.3
	c5.9-2.6,12.2-3.9,18.6-3.8c12.7,0,25,5.1,33.9,14.2c4.4,4.5,7.8,9.7,10.3,15.4c2.5,5.9,3.8,12.3,3.7,18.7v19.4
	c0,6.4-1.2,12.8-3.7,18.7c-2.4,5.7-5.9,10.9-10.3,15.3c-4.4,4.4-9.6,7.9-15.3,10.4C578.3,306.6,571.9,307.8,565.5,307.7z M565.5,200
	c-5.3,0-10.5,1-15.4,3.1c-4.7,2-9,5-12.7,8.6c-3.7,3.7-6.6,8-8.6,12.8c-2.1,4.9-3.1,10.2-3.1,15.5v19.4c0,5.3,1,10.6,3.1,15.5
	c2,4.8,5,9.1,8.6,12.8c7.4,7.5,17.5,11.7,28.1,11.7c5.3,0,10.6-1,15.4-3.1c9.6-4.1,17.2-11.8,21.2-21.4c2.1-4.9,3.1-10.2,3.1-15.5
	V240c0-5.3-1-10.6-3.1-15.5c-2-4.8-4.9-9.1-8.6-12.8C586.2,204.2,576,200,565.5,200z M565.5,291.4c-4.2,0-8.5-0.8-12.4-2.5
	c-3.8-1.6-7.2-3.9-10.1-6.8c-2.9-2.9-5.2-6.4-6.8-10.3c-1.7-3.9-2.6-8.1-2.5-12.4V240c0-4.3,0.8-8.5,2.5-12.4
	c1.6-3.8,3.9-7.3,6.8-10.3c5.9-6,14-9.4,22.4-9.4c4.2,0,8.5,0.8,12.4,2.5c7.7,3.3,13.8,9.4,17.1,17.1c1.7,3.9,2.5,8.2,2.5,12.4v19.4
	c0,4.3-0.8,8.5-2.5,12.4c-1.6,3.8-3.9,7.3-6.8,10.3C582.1,288,574,291.5,565.5,291.4z M565.5,216.3c-6.2-0.1-12.2,2.4-16.6,6.8
	c-4.5,4.4-7,10.4-6.8,16.7v19.4c-0.1,6.3,2.3,12.3,6.8,16.7c4.3,4.6,10.3,7.1,16.6,7c6.3,0,12.2-2.5,16.6-7c4.5-4.4,7-10.4,6.8-16.7
	v-19.4c-0.1-13-10.5-23.5-23.5-23.7L565.5,216.3z"/>
<linearGradient id="SVGID_00000047778176815851709250000004761564977770724239_" gradientUnits="userSpaceOnUse" x1="755.2209" y1="156.8307" x2="755.2209" y2="268.5434" gradientTransform="matrix(1 0 0 -1 -84.33 462.39)">
	<stop  offset="0" style="stop-color:#9A009B"/>
	<stop  offset="1" style="stop-color:#DC44CD"/>
</linearGradient>
<path style="fill:url(#SVGID_00000047778176815851709250000004761564977770724239_);" d="M671,305.6c-25.4-0.1-45.9-20.7-45.9-46.1
	V240c0-6.1,1.2-12.2,3.6-17.9c2.3-5.5,5.7-10.5,9.9-14.7c4.2-4.2,9.2-7.5,14.6-9.9c5.6-2.4,11.7-3.7,17.8-3.6
	c12.2,0,23.9,5,32.4,13.7c4.2,4.2,7.6,9.2,9.9,14.7c2.3,5.7,3.5,11.8,3.4,17.9v19.4c0.1,12.2-4.8,23.9-13.4,32.5
	c-4.2,4.2-9.2,7.6-14.6,10C683,304.4,677,305.6,671,305.6z M671,301.6c5.6,0,11.2-1.2,16.3-3.4c5-2.1,9.5-5.2,13.3-9.1
	c3.8-3.9,6.9-8.5,9.1-13.5c2.3-5.1,3.4-10.7,3.4-16.3v-19.4c0-5.6-1.2-11.2-3.4-16.4c-2.1-5-5.2-9.6-9.1-13.4
	c-7.8-8-18.5-12.4-29.6-12.4c-5.6,0-11.1,1.2-16.3,3.4c-10.1,4.4-18.1,12.4-22.4,22.5c-2.2,5.2-3.3,10.7-3.3,16.4v19.4
	c0,5.6,1.1,11.2,3.3,16.3c2.1,5,5.2,9.6,9.1,13.5C649.1,297.2,659.8,301.6,671,301.6L671,301.6z M671,289.2c-3.9,0-7.8-0.8-11.5-2.4
	c-3.5-1.5-6.7-3.7-9.4-6.4c-2.7-2.7-4.9-5.9-6.4-9.5c-1.6-3.6-2.3-7.6-2.3-11.5V240c0-4,0.8-7.9,2.3-11.5c1.5-3.5,3.7-6.8,6.4-9.5
	c5.5-5.6,13-8.8,20.9-8.8c3.9,0,7.8,0.8,11.5,2.3c3.5,1.5,6.7,3.7,9.4,6.4c2.7,2.7,4.9,6,6.4,9.5c1.6,3.6,2.3,7.6,2.3,11.5v19.4
	c0,4-0.8,7.9-2.3,11.5c-1.5,3.5-3.7,6.8-6.4,9.5C686.4,286.1,678.8,289.2,671,289.2L671,289.2z M671,285.3c6.8,0,13.4-2.7,18.1-7.6
	c4.9-4.8,7.7-11.4,7.6-18.2V240c0.1-6.9-2.6-13.5-7.6-18.2c-4.7-5-11.3-7.7-18.1-7.6c-6.8,0-13.4,2.7-18.1,7.6
	c-5,4.8-7.7,11.4-7.6,18.2v19.4c-0.1,6.9,2.7,13.5,7.6,18.2C657.5,282.6,664.1,285.4,671,285.3L671,285.3z"/>
<linearGradient id="SVGID_00000042712765610801537360000016724552562349744259_" gradientUnits="userSpaceOnUse" x1="755.1852" y1="154.642" x2="755.1852" y2="270.6306" gradientTransform="matrix(1 0 0 -1 -84.33 462.39)">
	<stop  offset="0" style="stop-color:#9A009B"/>
	<stop  offset="1" style="stop-color:#DC44CD"/>
</linearGradient>
<path style="fill:url(#SVGID_00000042712765610801537360000016724552562349744259_);" d="M671,307.7c-26.6-0.1-48.1-21.7-48.1-48.3
	V240c0-6.4,1.2-12.8,3.8-18.7c2.4-5.7,5.9-11,10.3-15.4c4.4-4.4,9.6-7.8,15.3-10.3c5.9-2.6,12.2-3.9,18.6-3.8
	c12.7,0,25,5.1,33.9,14.2c4.4,4.5,7.8,9.7,10.3,15.4c2.5,5.9,3.8,12.3,3.7,18.7v19.4c0,6.4-1.2,12.8-3.7,18.7
	c-2.4,5.7-5.9,10.9-10.3,15.3c-4.4,4.4-9.6,7.9-15.3,10.4C683.7,306.5,677.3,307.8,671,307.7z M671,200c-5.3,0-10.5,1-15.4,3.1
	c-9.6,4.1-17.2,11.8-21.3,21.4c-2.1,4.9-3.1,10.2-3.1,15.5v19.4c0,5.3,1,10.6,3.1,15.5c2,4.8,5,9.1,8.6,12.8
	c7.4,7.5,17.5,11.7,28.1,11.7c5.3,0,10.5-1,15.4-3.1c4.7-2,9-4.9,12.7-8.6c3.6-3.7,6.6-8,8.6-12.8c2.1-4.9,3.1-10.2,3.1-15.5V240
	c0-5.3-1-10.6-3.1-15.5c-2-4.8-4.9-9.1-8.6-12.8C691.6,204.2,681.5,200,671,200z M671,291.4c-4.2,0-8.5-0.8-12.4-2.5
	c-7.7-3.3-13.8-9.4-17.1-17.1c-1.7-3.9-2.5-8.1-2.5-12.4V240c0-4.3,0.8-8.5,2.5-12.4c1.6-3.8,3.9-7.3,6.8-10.3
	c5.9-6,14-9.4,22.4-9.4c4.2,0,8.5,0.8,12.4,2.5c3.8,1.6,7.3,3.9,10.3,6.8c2.9,3,5.2,6.4,6.8,10.3c1.7,3.9,2.5,8.2,2.5,12.4v19.4
	c0,4.3-0.8,8.5-2.5,12.4c-1.6,3.8-3.9,7.3-6.8,10.3C687.5,288,679.4,291.4,671,291.4z M671,216.4c-6.2-0.1-12.2,2.4-16.6,6.8
	c-4.5,4.4-7,10.4-6.8,16.7v19.4c-0.1,6.3,2.3,12.3,6.8,16.7c4.3,4.6,10.3,7.1,16.6,7c6.3,0,12.2-2.5,16.6-7c4.5-4.4,7-10.4,6.8-16.7
	v-19.4c0.1-6.3-2.3-12.3-6.8-16.7C683.2,218.8,677.2,216.3,671,216.4z"/>
<linearGradient id="SVGID_00000055703449228292421320000012077093426347214741_" gradientUnits="userSpaceOnUse" x1="858.632" y1="156.8321" x2="858.632" y2="268.543" gradientTransform="matrix(1 0 0 -1 -84.33 462.39)">
	<stop  offset="0" style="stop-color:#9A009B"/>
	<stop  offset="1" style="stop-color:#DC44CD"/>
</linearGradient>
<path style="fill:url(#SVGID_00000055703449228292421320000012077093426347214741_);" d="M728.4,295.4v-91.4
	c0.1-2.7,1.1-5.2,2.9-7.2c1.7-1.9,4.2-3,6.8-3h36.1c6.1,0,12.2,1.3,17.8,3.7c5.4,2.4,10.4,5.7,14.6,9.9c4.2,4.2,7.6,9.2,9.9,14.7
	c2.4,5.7,3.6,11.7,3.6,17.9v19.4c0,12.2-4.8,23.9-13.5,32.5c-4.2,4.2-9.1,7.6-14.6,10c-5.6,2.4-11.7,3.7-17.8,3.6h-35.8
	c-2.7,0.1-5.3-1-7.2-3C729.5,300.7,728.4,298.1,728.4,295.4z M732.3,204v91.1c0,1.7,0.6,3.3,1.8,4.6c1.1,1.3,2.7,2,4.4,2h35.8
	c5.6,0,11.2-1.2,16.3-3.4c5-2.1,9.5-5.2,13.3-9.1c3.8-3.9,6.9-8.5,9.1-13.5c2.3-5.1,3.4-10.7,3.4-16.3v-19.4
	c0-5.6-1.2-11.2-3.4-16.4c-4.3-10.1-12.3-18.2-22.4-22.5c-5.1-2.2-10.7-3.4-16.3-3.4h-35.8c-1.6,0-3.2,0.6-4.3,1.8
	C732.9,200.6,732.3,202.3,732.3,204z M744.7,289.2v-79h29.6c3.9,0,7.8,0.8,11.5,2.3c7.1,3.1,12.8,8.8,15.8,15.9
	c1.6,3.6,2.3,7.6,2.3,11.5v19.4c0,4-0.8,7.9-2.3,11.5c-1.5,3.5-3.7,6.7-6.4,9.5c-2.7,2.7-5.9,4.9-9.4,6.4c-3.6,1.6-7.5,2.4-11.5,2.4
	L744.7,289.2z M748.6,285.3h25.7c6.8,0.1,13.4-2.7,18.1-7.6c4.9-4.8,7.7-11.4,7.6-18.2V240c0.1-6.9-2.6-13.5-7.6-18.2
	c-4.7-5-11.3-7.7-18.1-7.6h-25.7V285.3z"/>
<linearGradient id="SVGID_00000054263467941861958650000014810707347700974732_" gradientUnits="userSpaceOnUse" x1="858.716" y1="154.6407" x2="858.716" y2="270.7327" gradientTransform="matrix(1 0 0 -1 -84.33 462.39)">
	<stop  offset="0" style="stop-color:#9A009B"/>
	<stop  offset="1" style="stop-color:#DC44CD"/>
</linearGradient>
<path style="fill:url(#SVGID_00000054263467941861958650000014810707347700974732_);" d="M774.3,307.7h-35.8
	c-3.3,0.1-6.5-1.2-8.7-3.6c-2.3-2.3-3.5-5.5-3.4-8.7v-91.5c0.1-3.1,1.3-6.1,3.4-8.5c2.2-2.4,5.2-3.7,8.5-3.8h36.2
	c6.4,0,12.8,1.3,18.7,3.9c5.7,2.4,10.9,5.9,15.3,10.3c4.4,4.4,7.9,9.7,10.3,15.4c2.5,5.9,3.8,12.3,3.8,18.7v19.4
	c0.1,12.8-5,25.2-14.1,34.2c-4.4,4.4-9.6,8-15.3,10.4C787.1,306.6,780.7,307.8,774.3,307.7z M738.5,200c-2.2,0-4,1.8-4,4v91.1
	c0,1.1,0.4,2.2,1.2,3.1c0.7,0.8,1.7,1.3,2.8,1.2h35.8c5.3,0,10.5-1,15.4-3.1c9.6-4.1,17.2-11.8,21.3-21.4c2.1-4.9,3.1-10.2,3.1-15.5
	V240c0-5.3-1-10.6-3.1-15.5c-4.1-9.6-11.7-17.2-21.3-21.4c-4.9-2.1-10.1-3.2-15.4-3.1H738.5z M774.3,291.4h-31.8V208h31.8
	c4.2,0,8.5,0.8,12.4,2.5c3.8,1.6,7.2,3.9,10.1,6.8c2.9,3,5.2,6.4,6.8,10.3c1.7,3.9,2.5,8.2,2.5,12.4v19.4c0,4.3-0.8,8.5-2.5,12.4
	c-3.3,7.7-9.4,13.8-17.1,17.1C782.6,290.6,778.5,291.4,774.3,291.4z M750.8,283.1h23.5c6.2,0.1,12.2-2.3,16.6-6.8
	c4.5-4.4,7-10.4,6.8-16.7v-19.4c0.1-6.3-2.3-12.3-6.8-16.7c-4.3-4.5-10.3-7-16.6-6.8h-23.5V283.1z"/>
<linearGradient id="SVGID_00000153667145370874516890000005425939181812148398_" gradientUnits="userSpaceOnUse" x1="926.5298" y1="155.873" x2="926.5298" y2="268.5458" gradientTransform="matrix(1 0 0 -1 -84.33 462.39)">
	<stop  offset="0" style="stop-color:#9A009B"/>
	<stop  offset="1" style="stop-color:#DC44CD"/>
</linearGradient>
<path style="fill:url(#SVGID_00000153667145370874516890000005425939181812148398_);" d="M852.3,204v92.4c0,2.7-1,5.3-2.9,7.2
	c-3.9,3.9-10.2,4-14.1,0.2c-0.1-0.1-0.1-0.1-0.2-0.2c-1.9-1.9-3-4.5-2.9-7.2V204c0-2.7,1-5.2,2.9-7.1c3.9-3.9,10.2-4,14.1-0.2
	c0.1,0.1,0.1,0.1,0.2,0.2C851.3,198.7,852.3,201.3,852.3,204z M848.4,204c0-3.4-2.7-6.2-6.1-6.2c0,0-0.1,0-0.1,0
	c-3.4,0-6.2,2.8-6.2,6.2v92.4c0,3.4,2.7,6.2,6.2,6.2c0,0,0,0,0,0c3.4,0,6.1-2.7,6.2-6.1c0,0,0-0.1,0-0.1V204z"/>
<linearGradient id="SVGID_00000103947335844366613140000011637367816088981912_" gradientUnits="userSpaceOnUse" x1="926.7009" y1="153.7845" x2="926.7009" y2="270.8367" gradientTransform="matrix(1 0 0 -1 -84.33 462.39)">
	<stop  offset="0" style="stop-color:#9A009B"/>
	<stop  offset="1" style="stop-color:#DC44CD"/>
</linearGradient>
<path style="fill:url(#SVGID_00000103947335844366613140000011637367816088981912_);" d="M842.3,308.6c-3.3,0-6.5-1.3-8.7-3.7
	c-2.3-2.3-3.5-5.4-3.4-8.7v-92.4c0-6.8,5.5-12.3,12.3-12.3c3.3,0,6.5,1.3,8.7,3.7c2.3,2.3,3.5,5.4,3.4,8.7v92.4
	c0.1,3.2-1.2,6.4-3.4,8.7C848.9,307.4,845.6,308.7,842.3,308.6z M842.3,200c-1.1,0-2.1,0.4-2.8,1.2c-0.8,0.7-1.2,1.8-1.2,2.8v92.4
	c0,1.1,0.4,2.1,1.2,2.8c1.5,1.5,4,1.6,5.5,0.1c0,0,0.1-0.1,0.1-0.1c0.8-0.7,1.2-1.8,1.2-2.8V204c0-1.1-0.4-2.1-1.2-2.8
	C844.4,200.4,843.4,199.9,842.3,200z"/>
<linearGradient id="SVGID_00000062914104008703872250000010383736441163254152_" gradientUnits="userSpaceOnUse" x1="994.6354" y1="156.8321" x2="994.6354" y2="268.5446" gradientTransform="matrix(1 0 0 -1 -84.33 462.39)">
	<stop  offset="0" style="stop-color:#9A009B"/>
	<stop  offset="1" style="stop-color:#DC44CD"/>
</linearGradient>
<path style="fill:url(#SVGID_00000062914104008703872250000010383736441163254152_);" d="M946.1,214.1h-61.6v25.4h26
	c5.6,0.9,9.4,6.1,8.6,11.7c-0.7,4.4-4.2,7.9-8.6,8.6h-25.7v25.5h61.6c5.7,0.2,10.1,5,9.9,10.6c-0.1,2.5-1.1,4.8-2.8,6.6
	c-1.9,1.9-4.4,3-7.1,3h-71.8c-2.7,0.1-5.3-1-7.2-3c-1.9-1.9-3-4.5-2.9-7.2V204c0-2.7,1-5.2,2.9-7.1c1.9-2,4.4-3.1,7.2-3h71.6
	c2.7,0,5.3,1.1,7.1,3c3.8,4.2,3.4,10.7-0.8,14.5c-1.7,1.6-4,2.5-6.3,2.6V214.1z M868.3,295.4c0,1.6,0.6,3.2,1.8,4.4
	c1.1,1.2,2.7,1.9,4.4,1.8h71.6c1.7,0,3.2-0.6,4.4-1.8c2.4-2.4,2.4-6.3,0-8.8c-1.2-1.2-2.7-1.8-4.4-1.8h-65.4v-33.4h29.8
	c1.6,0,3.2-0.6,4.4-1.8c1.2-1.2,1.8-2.7,1.8-4.4c0.1-3.4-2.6-6.2-6-6.2c0,0-0.1,0-0.1,0h-29.6v-33.3h65.4c1.6,0,3.2-0.6,4.4-1.8
	c2.4-2.4,2.4-6.4,0-8.8c-1.1-1.2-2.7-1.8-4.4-1.8h-71.7c-3.4,0-6.1,2.7-6.2,6.1c0,0,0,0.1,0,0.1V295.4z"/>
<linearGradient id="SVGID_00000029030360058122059550000008509514386597781127_" gradientUnits="userSpaceOnUse" x1="994.7798" y1="154.6419" x2="994.7798" y2="270.734" gradientTransform="matrix(1 0 0 -1 -84.33 462.39)">
	<stop  offset="0" style="stop-color:#9A009B"/>
	<stop  offset="1" style="stop-color:#DC44CD"/>
</linearGradient>
<path style="fill:url(#SVGID_00000029030360058122059550000008509514386597781127_);" d="M946.1,307.7h-71.6
	c-3.3,0.1-6.5-1.3-8.7-3.6c-2.3-2.3-3.5-5.5-3.4-8.7V204c-0.1-3.2,1.2-6.4,3.4-8.7c2.3-2.4,5.4-3.7,8.7-3.7h71.6
	c6.8,0,12.3,5.6,12.3,12.4c0,3.2-1.3,6.3-3.6,8.6c-2.3,2.3-5.4,3.5-8.7,3.4h-59.3v21h23.7c3.3,0,6.4,1.3,8.7,3.7
	c4.8,4.8,4.8,12.6,0,17.4c-2.3,2.3-5.4,3.6-8.6,3.6h-23.5v21.1h59.3c6.8,0,12.3,5.5,12.3,12.3c0,6.8-5.5,12.3-12.3,12.3L946.1,307.7
	z M874.5,200c-1.1,0-2.1,0.4-2.8,1.2c-0.8,0.7-1.2,1.8-1.2,2.8v91.5c0,1.1,0.4,2.1,1.2,2.8c0.7,0.8,1.7,1.2,2.8,1.2h71.6
	c1.1,0,2.1-0.4,2.8-1.2c0.8-0.7,1.2-1.8,1.2-2.8c0-2.2-1.7-4-3.9-4c0,0,0,0,0,0h-67.6v-37.6h32c1.1,0,2.1-0.4,2.8-1.2
	c0.8-0.7,1.2-1.8,1.2-2.8c0-1.1-0.4-2.1-1.2-2.8c-0.7-0.8-1.7-1.2-2.8-1.2h-31.8v-37.6h67.6c2.2,0,4-1.8,4-4c0-2.2-1.7-4-3.9-4
	c0,0,0,0,0,0L874.5,200z"/>
<linearGradient id="SVGID_00000016772516208080796390000009345838835559758525_" gradientUnits="userSpaceOnUse" x1="84.1079" y1="212.1699" x2="167.4886" y2="212.1699" gradientTransform="matrix(1 0 0 -1 -84.33 462.39)">
	<stop  offset="0" style="stop-color:#007CF7"/>
	<stop  offset="1" style="stop-color:#2743C1"/>
</linearGradient>
<linearGradient id="SVGID_00000176727573284252304730000012625270647543822756_" gradientUnits="userSpaceOnUse" x1="125.7983" y1="149.6568" x2="125.7983" y2="274.851" gradientTransform="matrix(1 0 0 -1 -84.33 462.39)">
	<stop  offset="0" style="stop-color:#007CF7"/>
	<stop  offset="1" style="stop-color:#2743C1"/>
</linearGradient>
<path style="fill:url(#SVGID_00000016772516208080796390000009345838835559758525_);stroke:url(#SVGID_00000176727573284252304730000012625270647543822756_);stroke-miterlimit:10;" d="
	M70.4,286.6H25.3V201c0-3.4-1.3-6.6-3.7-9c-4.9-5-13-5.1-18-0.1c0,0-0.1,0.1-0.1,0.1c-2.4,2.4-3.8,5.6-3.7,9v98.5
	c0,3.4,1.3,6.7,3.7,9c2.4,2.4,5.6,3.7,9,3.6h57.9c7.1-0.1,12.7-5.8,12.8-12.8C83.2,292.3,77.5,286.6,70.4,286.6
	C70.4,286.6,70.4,286.6,70.4,286.6z M70.4,304.2H12.5c-2.6,0-4.7-2.1-4.7-4.7c0,0,0,0,0-0.1v-98.5c0-1.3,0.5-2.5,1.4-3.4
	c0.9-0.9,2.1-1.4,3.4-1.4c1.3-0.1,2.5,0.5,3.4,1.4c0.9,0.9,1.4,2.1,1.4,3.4v93.7h53.1c2.6,0,4.8,2.1,4.8,4.8c0,2.6-2.1,4.8-4.8,4.8
	H70.4z"/>
<linearGradient id="SVGID_00000054983149642428922020000011577129008506212797_" gradientUnits="userSpaceOnUse" x1="209.845" y1="212.2607" x2="312.5453" y2="212.2607" gradientTransform="matrix(1 0 0 -1 -84.33 462.39)">
	<stop  offset="0" style="stop-color:#007CF7"/>
	<stop  offset="1" style="stop-color:#2743C1"/>
</linearGradient>
<linearGradient id="SVGID_00000044140429515755063460000007258839141786136481_" gradientUnits="userSpaceOnUse" x1="261.1952" y1="149.6604" x2="261.1952" y2="274.861" gradientTransform="matrix(1 0 0 -1 -84.33 462.39)">
	<stop  offset="0" style="stop-color:#007CF7"/>
	<stop  offset="1" style="stop-color:#2743C1"/>
</linearGradient>
<path style="fill:url(#SVGID_00000054983149642428922020000011577129008506212797_);stroke:url(#SVGID_00000044140429515755063460000007258839141786136481_);stroke-miterlimit:10;" d="
	M215.4,213.7c7.1,0,12.8-5.8,12.8-12.8c0,0,0,0,0,0c0-3.4-1.3-6.7-3.7-9c-2.4-2.5-5.6-3.8-9-3.8h-77.2c-3.4-0.1-6.7,1.3-9,3.8
	c-2.4,2.4-3.8,5.6-3.7,9v98.5c0,3.4,1.3,6.7,3.7,9c2.3,2.5,5.6,3.9,9,3.8h77.2c3.4,0,6.7-1.3,9-3.8c5-5,5-13.1,0-18.1
	c-2.4-2.4-5.6-3.8-9-3.7h-64.6v-23.6h25.8c7.1-0.1,12.7-5.8,12.8-12.8c0-3.4-1.3-6.7-3.8-9.1c-2.4-2.4-5.6-3.8-9-3.8h-25.8v-23.6
	H215.4z M176.9,254.7H143v39.7h72.4c2.6,0,4.8,2.1,4.8,4.8c0,2.6-2.1,4.8-4.8,4.8h-77.2c-2.6,0-4.7-2.1-4.7-4.7c0,0,0,0,0-0.1v-98.5
	c0-1.3,0.5-2.5,1.4-3.4c0.9-0.9,2.1-1.4,3.4-1.4h77.2c1.3-0.1,2.5,0.5,3.4,1.4c0.9,0.9,1.4,2.1,1.4,3.4c0,2.6-2.1,4.8-4.8,4.8H143
	v39.7h33.8c1.3-0.1,2.5,0.5,3.4,1.4c0.9,0.9,1.4,2.1,1.4,3.4c0,1.3-0.5,2.5-1.4,3.4c-0.9,1-2.1,1.5-3.4,1.5V254.7z"/>
<linearGradient id="SVGID_00000000206204590830699980000013622626595645894312_" gradientUnits="userSpaceOnUse" x1="372.3972" y1="212.2607" x2="440.0737" y2="212.2607" gradientTransform="matrix(1 0 0 -1 -84.33 462.39)">
	<stop  offset="0" style="stop-color:#007CF7"/>
	<stop  offset="1" style="stop-color:#2743C1"/>
</linearGradient>
<linearGradient id="SVGID_00000023277725964659882660000002004225792862111927_" gradientUnits="userSpaceOnUse" x1="406.2354" y1="167.2817" x2="406.2354" y2="257.2397" gradientTransform="matrix(1 0 0 -1 -84.33 462.39)">
	<stop  offset="0" style="stop-color:#007CF7"/>
	<stop  offset="1" style="stop-color:#2743C1"/>
</linearGradient>
<path style="fill:url(#SVGID_00000000206204590830699980000013622626595645894312_);stroke:url(#SVGID_00000023277725964659882660000002004225792862111927_);stroke-miterlimit:10;" d="
	M355.7,260.6v-20.9c0-4.5-0.9-9-2.7-13.2c-3.4-8.2-9.9-14.7-18.1-18.2c-4.1-1.8-8.6-2.7-13.1-2.7h-33.8v89H322c4.5,0,9-0.9,13.1-2.7
	c8.1-3.5,14.6-10,18.1-18.2C354.9,269.6,355.8,265.1,355.7,260.6z M296.1,213.7H322c6.9-0.1,13.5,2.7,18.2,7.7
	c5,4.8,7.7,11.4,7.6,18.3v20.9c0.1,6.9-2.7,13.5-7.6,18.3c-4.7,5-11.3,7.8-18.2,7.7h-25.8L296.1,213.7z"/>
<linearGradient id="SVGID_00000073003191830342421660000017037226391119531666_" gradientUnits="userSpaceOnUse" x1="354.913" y1="212.2602" x2="457.6259" y2="212.2602" gradientTransform="matrix(1 0 0 -1 -84.33 462.39)">
	<stop  offset="0" style="stop-color:#007CF7"/>
	<stop  offset="1" style="stop-color:#2743C1"/>
</linearGradient>
<linearGradient id="SVGID_00000049935828506281486710000010770682213283451285_" gradientUnits="userSpaceOnUse" x1="406.2695" y1="149.6609" x2="406.2695" y2="274.8594" gradientTransform="matrix(1 0 0 -1 -84.33 462.39)">
	<stop  offset="0" style="stop-color:#007CF7"/>
	<stop  offset="1" style="stop-color:#2743C1"/>
</linearGradient>
<path style="fill:url(#SVGID_00000073003191830342421660000017037226391119531666_);stroke:url(#SVGID_00000049935828506281486710000010770682213283451285_);stroke-miterlimit:10;" d="
	M369.2,219.6c-2.6-6.1-6.3-11.7-11.1-16.5c-4.7-4.7-10.2-8.4-16.3-11.1c-6.3-2.7-13.1-4.1-19.9-4.1h-39c-3.3,0-6.5,1.4-8.8,3.9
	c-2.2,2.5-3.4,5.6-3.6,8.9v98.6c0,3.4,1.3,6.7,3.7,9c2.3,2.5,5.6,3.8,9,3.8H322c6.8,0,13.6-1.3,19.9-4.1c6.1-2.7,11.6-6.4,16.4-11.2
	c4.7-4.7,8.5-10.3,11.1-16.4c2.7-6.3,4.1-13.1,4-20v-20.9C373.3,232.8,371.9,226,369.2,219.6z M322,304.2h-38.7
	c-1.3,0.1-2.6-0.5-3.4-1.5c-0.9-1-1.4-2.3-1.4-3.6v-98.2c0-1.3,0.5-2.5,1.4-3.4c0.9-0.9,2.1-1.4,3.4-1.4H322
	c5.8,0,11.5,1.1,16.8,3.4c10.4,4.5,18.8,12.8,23.2,23.3c2.3,5.3,3.4,11.1,3.4,16.9v20.9c0,5.8-1.1,11.5-3.4,16.9
	c-4.4,10.5-12.7,18.8-23.2,23.3C333.4,303,327.7,304.2,322,304.2z"/>
<path class="st16" d="M479.1,39.9c-89.7,0.1-170,55.6-201.9,139.4H681C649.1,95.5,568.8,40,479.1,39.9z"/>
<path class="st16" d="M479.1,472c90.9-0.1,172.1-57,203.1-142.5H275.9C307,415,388.2,472,479.1,472z"/>
<linearGradient id="SVGID_00000088120596806459572820000010297950483532530831_" gradientUnits="userSpaceOnUse" x1="559.1475" y1="463.0149" x2="571.1224" y2="-50.1291" gradientTransform="matrix(1 0 0 -1 -84.33 462.39)">
	<stop  offset="0" style="stop-color:#007CF7"/>
	<stop  offset="1" style="stop-color:#DC44CD"/>
</linearGradient>
<path style="fill:url(#SVGID_00000088120596806459572820000010297950483532530831_);" d="M479.1,39.9c89.7,0.1,170,55.6,201.9,139.4
	h43C681.7,44,537.8-31.4,402.5,10.9C322.1,36,259.2,98.9,234.1,179.3h43C309,95.4,389.4,40,479.1,39.9z"/>
<linearGradient id="SVGID_00000145770935903808081850000013182235140702593926_" gradientUnits="userSpaceOnUse" x1="555.6722" y1="462.9476" x2="567.6813" y2="-50.2306" gradientTransform="matrix(1 0 0 -1 -84.33 462.39)">
	<stop  offset="0" style="stop-color:#007CF7"/>
	<stop  offset="1" style="stop-color:#DC44CD"/>
</linearGradient>
<path style="fill:url(#SVGID_00000145770935903808081850000013182235140702593926_);" d="M479.1,472C388.2,472,307,415,275.9,329.6
	h-42.7c40.5,135.8,183.5,213,319.3,172.5c82.9-24.7,147.7-89.6,172.5-172.5h-42.7C651.2,415,570,471.9,479.1,472z"/>
</svg>
